<?xml version="1.0" ?>
<!DOCTYPE svg PUBLIC '-//W3C//DTD SVG 1.1//EN' 'http://www.w3.org/Graphics/SVG/1.1/DTD/svg11.dtd'><svg
    enable-background="new 0 0 60 60" height="60px" id="图层_1" version="1.1" viewBox="0 0 60 60" width="60px"
    xml:space="preserve" xmlns="http://www.w3.org/2000/svg" xmlns:xlink="http://www.w3.org/1999/xlink">
    <path clip-rule="evenodd"
        d="  M47.582,50.125H59.5V39.564c0-5.723-5.807-11.944-13.915-14.377c3.495-2.332,5.798-6.305,5.798-10.818  c0-7.179-5.824-12.999-13.011-12.999c-4.619,0-8.677,2.405-10.986,6.029"
        fill="none" fill-rule="evenodd" stroke="#3E3E3E" stroke-miterlimit="10" stroke-width="2" />
    <g>
        <path
            d="M22.454,11.342c6.353,0,11.521,5.162,11.521,11.506c0,3.851-1.92,7.431-5.136,9.578l-3.534,2.358   l4.069,1.221c7.309,2.192,13.034,7.912,13.034,13.022V58H2.5v-8.973c0-4.82,5.829-10.496,13.271-12.921l4.005-1.305l-3.543-2.279   c-3.319-2.134-5.3-5.75-5.3-9.674C10.933,16.503,16.101,11.342,22.454,11.342 M22.454,9.342c-7.468,0-13.521,6.047-13.521,13.506   c0,4.77,2.481,8.954,6.219,11.357C7.212,36.792,0.5,43.095,0.5,49.027V60h43.908V49.027c0-5.946-6.033-12.411-14.459-14.938   c3.632-2.424,6.025-6.551,6.025-11.241C35.975,15.389,29.922,9.342,22.454,9.342L22.454,9.342z"
            fill="#3E3E3E" />
    </g>
</svg>