<?xml version="1.0" ?>
<!DOCTYPE svg PUBLIC '-//W3C//DTD SVG 1.1//EN' 'http://www.w3.org/Graphics/SVG/1.1/DTD/svg11.dtd'><svg
    enable-background="new 0 0 60 60" height="60px" id="图层_1" version="1.1" viewBox="0 0 60 60" width="60px"
    xml:space="preserve" xmlns="http://www.w3.org/2000/svg" xmlns:xlink="http://www.w3.org/1999/xlink">
    <g>
        <path clip-rule="evenodd"
            d="   M47.915,49.67C54.516,49.432,59,48.162,59,42.458c0-6.616-6.032-13.416-14.396-15.885c3.226-2.163,5.35-5.841,5.35-10.017   c0-6.657-5.396-12.052-12.05-12.052c-4.077,0-7.681,2.024-9.863,5.124"
            fill="#fff" fill-rule="evenodd" stroke="#fff" stroke-miterlimit="10" stroke-width="2" />
        <g>
            <path
                d="M22.506,13.704c5.987,0,10.858,4.872,10.858,10.859c0,3.625-1.803,7-4.824,9.027l-3.537,2.374l4.086,1.205    c7.939,2.342,13.926,8.803,13.926,15.029c0,4.457-2.973,5.746-13.254,5.746c-1.101,0-2.24-0.011-3.41-0.022    c-1.25-0.012-2.534-0.024-3.843-0.024c-1.31,0-2.594,0.013-3.843,0.024c-1.17,0.012-2.309,0.022-3.41,0.022    C4.973,57.944,2,56.655,2,52.198c0-6.225,5.986-12.686,13.925-15.028l4.086-1.205l-3.538-2.374    c-3.021-2.026-4.824-5.401-4.824-9.028C11.649,18.575,16.52,13.704,22.506,13.704 M22.506,11.704    c-7.101,0-12.857,5.757-12.857,12.859c0,4.456,2.268,8.379,5.71,10.689C6.434,37.886,0,45.14,0,52.198    c0,7.029,6.383,7.746,15.255,7.746c2.276,0,4.715-0.047,7.253-0.047c2.537,0,4.978,0.047,7.253,0.047    c8.873,0,15.254-0.717,15.254-7.746c0-7.06-6.434-14.314-15.36-16.947c3.441-2.31,5.709-6.232,5.709-10.688    C35.364,17.461,29.608,11.704,22.506,11.704L22.506,11.704z"
                fill="#fff" />
        </g>
    </g>
</svg>